<?xml version="1.0" encoding="UTF-8" standalone="no" ?>
<!DOCTYPE svg PUBLIC "-//W3C//DTD SVG 1.1//EN" "http://www.w3.org/Graphics/SVG/1.1/DTD/svg11.dtd">
<svg xmlns="http://www.w3.org/2000/svg" xmlns:xlink="http://www.w3.org/1999/xlink" version="1.1" width="1200" height="900" viewBox="0 0 1200 900" xml:space="preserve">
<desc>Created with Fabric.js 4.2.0</desc>
<defs>
</defs>
<rect x="0" y="0" width="100%" height="100%" fill="transparent"></rect>
<g transform="matrix(0 0 0 0 0 0)" id="e2db198f-d727-4130-8dac-51a532bf83fd"  >
</g>
<g transform="matrix(1 0 0 1 600 450)" id="c0e4aa92-80a8-4c0b-be94-efdcdb2b8a17"  >
<rect style="stroke: none; stroke-width: 1; stroke-dasharray: none; stroke-linecap: butt; stroke-dashoffset: 0; stroke-linejoin: miter; stroke-miterlimit: 4; fill: rgb(244,238,245); fill-opacity: 0; fill-rule: nonzero; opacity: 1;" vector-effect="non-scaling-stroke"  x="-600" y="-450" rx="0" ry="0" width="1200" height="900" />
</g>
<g transform="matrix(1.93 0 0 1.93 818.63 225.44)"  >
<g style="" vector-effect="non-scaling-stroke"   >
		<g transform="matrix(1 0 0 1 0 11.97)"  >
<path style="stroke: none; stroke-width: 1; stroke-dasharray: none; stroke-linecap: butt; stroke-dashoffset: 0; stroke-linejoin: miter; stroke-miterlimit: 4; fill: rgb(4,161,108); fill-rule: nonzero; opacity: 1;" vector-effect="non-scaling-stroke"  transform=" translate(-50, -61.97)" d="M 81.389 41.474 L 74.557 41.474 C 74.458 45.013999999999996 71.607 47.913 68.018 47.913 C 64.478 47.913 61.577 45.013999999999996 61.53 41.474 L 38.521 41.474 C 38.472 45.013999999999996 35.572 47.913 31.981 47.913 C 28.441000000000003 47.913 25.542 45.013999999999996 25.493000000000002 41.474 L 18.659000000000002 41.474 C 15.610000000000003 41.474 13.104000000000003 43.980999999999995 13.104000000000003 47.028999999999996 C 13.104000000000003 49.928999999999995 15.414000000000003 52.339 18.266000000000002 52.535 L 25.542 79.87 C 25.886000000000003 81.245 26.721 82.474 28.147000000000002 82.474 L 70.869 82.474 C 72.346 82.474 73.082 81.245 73.524 79.87 L 81.783 52.535000000000004 C 84.635 52.339000000000006 86.897 49.929 86.897 47.029 C 86.896 43.981 84.438 41.474 81.389 41.474 z M 63.839 68.809 C 64.625 68.809 65.265 69.448 65.265 70.233 C 65.265 71.021 64.625 71.66000000000001 63.839 71.66000000000001 L 36.21 71.66000000000001 C 35.422000000000004 71.66000000000001 34.784 71.02100000000002 34.784 70.233 C 34.784 69.44800000000001 35.422 68.809 36.21 68.809 M 67.87 65.465 L 32.177 65.465 C 31.391 65.465 30.753 64.825 30.753 64.039 C 30.753 63.253 31.392 62.613 32.177 62.613 L 67.87 62.613 C 68.656 62.613 69.296 63.253 69.296 64.039 C 69.296 64.825 68.656 65.465 67.87 65.465 z M 71.557 58.827 L 28.492 58.827 C 27.704 58.827 27.066000000000003 58.189 27.066000000000003 57.400999999999996 C 27.066000000000003 56.614999999999995 27.705000000000002 56.025999999999996 28.492 56.025999999999996 L 71.556 56.025999999999996 C 72.344 56.025999999999996 72.983 56.614999999999995 72.983 57.400999999999996 C 72.983 58.189 72.345 58.827 71.557 58.827 z" stroke-linecap="round" />
</g>
		<g transform="matrix(1 0 0 1 -12.05 -18.69)"  >
<path style="stroke: none; stroke-width: 1; stroke-dasharray: none; stroke-linecap: butt; stroke-dashoffset: 0; stroke-linejoin: miter; stroke-miterlimit: 4; fill: rgb(4,161,108); fill-rule: nonzero; opacity: 1;" vector-effect="non-scaling-stroke"  transform=" translate(-37.95, -31.31)" d="M 30.243 44.579 L 30.314 44.621 C 31.977 45.579 34.105 45.011 35.063 43.347 L 46.936 22.783 C 47.898 21.12 47.327 18.994 45.664 18.034000000000002 L 45.591 17.992 C 43.928000000000004 17.032 41.802 17.603 40.842 19.266000000000002 L 28.97 39.83 C 28.011 41.493 28.58 43.618 30.243 44.579 z" stroke-linecap="round" />
</g>
		<g transform="matrix(1 0 0 1 12.07 -18.69)"  >
<path style="stroke: none; stroke-width: 1; stroke-dasharray: none; stroke-linecap: butt; stroke-dashoffset: 0; stroke-linejoin: miter; stroke-miterlimit: 4; fill: rgb(4,161,108); fill-rule: nonzero; opacity: 1;" vector-effect="non-scaling-stroke"  transform=" translate(-62.07, -31.31)" d="M 64.96 43.347 C 65.919 45.011 68.04599999999999 45.579 69.70899999999999 44.621 L 69.77999999999999 44.579 C 71.44299999999998 43.619 72.01399999999998 41.493 71.05299999999998 39.83 L 59.182 19.265 C 58.221000000000004 17.602 56.096000000000004 17.031 54.433 17.991 L 54.36 18.033 C 52.697 18.993000000000002 52.128 21.119 53.089 22.782 L 64.96 43.347 z" stroke-linecap="round" />
</g>
</g>
</g>
<g transform="matrix(2.26 0 0 2.26 290.38 255.35)"  >
<g style="" vector-effect="non-scaling-stroke"   >
		<g transform="matrix(1 0 0 1 -20.43 -30.52)"  >
<path style="stroke: none; stroke-width: 1; stroke-dasharray: none; stroke-linecap: butt; stroke-dashoffset: 0; stroke-linejoin: miter; stroke-miterlimit: 4; fill: rgb(18,197,183); fill-rule: nonzero; opacity: 1;" vector-effect="non-scaling-stroke"  transform=" translate(-29.57, -19.48)" d="M 29.571 25.455 C 32.9 25.455 35.544000000000004 22.764 35.544000000000004 19.482 C 35.544000000000004 16.204 32.900000000000006 13.511 29.571000000000005 13.511 C 26.293000000000006 13.511 23.602000000000004 16.204 23.602000000000004 19.482 C 23.602 22.763 26.293 25.455 29.571 25.455 z" stroke-linecap="round" />
</g>
		<g transform="matrix(1 0 0 1 -20.43 6.73)"  >
<path style="stroke: none; stroke-width: 1; stroke-dasharray: none; stroke-linecap: butt; stroke-dashoffset: 0; stroke-linejoin: miter; stroke-miterlimit: 4; fill: rgb(18,197,183); fill-rule: nonzero; opacity: 1;" vector-effect="non-scaling-stroke"  transform=" translate(-29.57, -56.73)" d="M 36.181 26.972 C 40.437 26.972 43.863 30.398000000000003 43.863 34.656 L 43.863 53.156 C 43.863 54.625 42.737 55.799 41.317 55.799 C 39.85 55.799 38.676 54.625 38.676 53.156 L 38.676 36.467 L 37.354 36.467 L 37.354 82.963 C 37.354 84.922 35.739 86.487 33.83 86.487 C 31.871 86.487 30.305999999999997 84.922 30.305999999999997 82.963 L 30.305999999999997 55.947 L 28.885999999999996 55.947 L 28.885999999999996 82.963 C 28.885999999999996 84.922 27.270999999999997 86.487 25.361999999999995 86.487 C 23.405999999999995 86.487 21.837999999999994 84.922 21.837999999999994 82.963 L 21.837999999999994 36.467 L 20.468999999999994 36.467 L 20.468999999999994 53.156 C 20.468999999999994 54.625 19.342999999999993 55.799 17.874999999999993 55.799 C 16.404999999999994 55.799 15.277999999999993 54.625 15.277999999999993 53.156 L 15.277999999999993 34.656 C 15.277999999999993 30.399 18.754999999999992 26.971999999999998 22.96399999999999 26.971999999999998 L 36.181 26.971999999999998 z" stroke-linecap="round" />
</g>
		<g transform="matrix(1 0 0 1 17.67 -30.78)"  >
<path style="stroke: none; stroke-width: 1; stroke-dasharray: none; stroke-linecap: butt; stroke-dashoffset: 0; stroke-linejoin: miter; stroke-miterlimit: 4; fill: rgb(18,197,183); fill-rule: nonzero; opacity: 1;" vector-effect="non-scaling-stroke"  transform=" translate(-67.68, -19.21)" d="M 67.699 25.259 C 64.324 25.259 61.582 22.517 61.582 19.189 C 61.582 15.861 64.324 13.169 67.699 13.169 C 71.02799999999999 13.169 73.769 15.86 73.769 19.189 C 73.769 22.518 71.028 25.259 67.699 25.259 z" stroke-linecap="round" />
</g>
		<g transform="matrix(1 0 0 1 17.66 6.71)"  >
<path style="stroke: none; stroke-width: 1; stroke-dasharray: none; stroke-linecap: butt; stroke-dashoffset: 0; stroke-linejoin: miter; stroke-miterlimit: 4; fill: rgb(18,197,183); fill-rule: nonzero; opacity: 1;" vector-effect="non-scaling-stroke"  transform=" translate(-67.66, -56.71)" d="M 63.049 26.581 C 63.049 26.581 57.472 26.386 55.512 33.041 L 50.716 49.73 C 50.274 51.297 51.157000000000004 52.471 52.528 52.863 C 53.85 53.254 55.269999999999996 52.568 55.61 51.345 L 60.311 35.046 L 61.536 35.046 L 53.459 63.236999999999995 L 61.094 63.236999999999995 L 61.094 83.941 C 61.094 85.507 62.416000000000004 86.83 64.07900000000001 86.83 C 65.549 86.83 67.066 85.359 67.066 83.795 L 67.066 63.238 L 68.287 63.238 L 68.287 83.79599999999999 C 68.287 85.35999999999999 69.805 86.83099999999999 71.275 86.83099999999999 C 72.93700000000001 86.83099999999999 74.259 85.50899999999999 74.259 83.942 L 74.259 63.238 L 81.894 63.238 L 73.81800000000001 35.047 L 75.09200000000001 35.047 L 79.74200000000002 51.346 C 80.08300000000001 52.568999999999996 81.50300000000001 53.254 82.82400000000001 52.864 C 84.19300000000001 52.471 85.07400000000001 51.297999999999995 84.58500000000001 49.730999999999995 L 79.84 33.041 C 77.881 26.385999999999996 72.3 26.580999999999996 72.3 26.580999999999996 L 63.049 26.580999999999996 z" stroke-linecap="round" />
</g>
</g>
</g>
<g transform="matrix(2.86 0 0 1.05 532.69 245.36)" id="d4d1a455-9ec2-4b29-a357-3eb75ac65791"  >
<polygon style="stroke: rgb(0,0,0); stroke-width: 0; stroke-dasharray: none; stroke-linecap: butt; stroke-dashoffset: 0; stroke-linejoin: miter; stroke-miterlimit: 4; fill: rgb(95,27,163); fill-rule: nonzero; opacity: 1;" vector-effect="non-scaling-stroke"  points="37.16,0 20.45,15.44 3.75,30.87 3.75,11.91 -37.16,11.91 -37.16,-12.96 3.75,-12.96 3.75,-30.87 20.45,-15.44 " />
</g>
<g transform="matrix(1.96 0 0 1.96 833.49 704.64)"  >
<path style="stroke: rgb(0,0,0); stroke-width: 0; stroke-dasharray: none; stroke-linecap: butt; stroke-dashoffset: 0; stroke-linejoin: miter; stroke-miterlimit: 4; fill: rgb(15,83,210); fill-rule: nonzero; opacity: 1;" vector-effect="non-scaling-stroke"  transform=" translate(-50, -50)" d="M 81.739 19.116 L 18.261 19.116 C 15.591999999999999 19.116 13.398 21.253 13.398 23.926 L 13.398 61.81099999999999 C 13.398 64.428 15.591999999999999 66.619 18.261 66.619 L 45.085 66.619 L 61.969 80.886 L 55.61 66.618 L 81.739 66.618 C 84.412 66.618 86.602 64.428 86.602 61.809999999999995 L 86.602 23.926 C 86.603 21.253 84.412 19.116 81.739 19.116 z M 27.881 28.681 L 59.885 28.681 L 59.885 33.596000000000004 L 27.881 33.596000000000004 L 27.881 28.681 z M 27.881 37.979 L 66.08500000000001 37.979 L 66.08500000000001 42.947 L 27.881 42.947 L 27.881 37.979 z M 27.881 47.328 L 51.819 47.328 L 51.819 52.245000000000005 L 27.881 52.245000000000005 L 27.881 47.328 z" stroke-linecap="round" />
</g>
<g transform="matrix(0 3.16 -1.1 0 841.45 472.65)"  >
<polygon style="stroke: rgb(0,0,0); stroke-width: 0; stroke-dasharray: none; stroke-linecap: butt; stroke-dashoffset: 0; stroke-linejoin: miter; stroke-miterlimit: 4; fill: rgb(95,27,163); fill-rule: nonzero; opacity: 1;" vector-effect="non-scaling-stroke"  points="37.16,0 20.45,15.44 3.75,30.87 3.75,11.91 -37.16,11.91 -37.16,-12.96 3.75,-12.96 3.75,-30.87 20.45,-15.44 " />
</g>
<g transform="matrix(-3.71 0 0 -1.03 535.26 700.31)"  >
<polygon style="stroke: rgb(0,0,0); stroke-width: 0; stroke-dasharray: none; stroke-linecap: butt; stroke-dashoffset: 0; stroke-linejoin: miter; stroke-miterlimit: 4; fill: rgb(95,27,163); fill-rule: nonzero; opacity: 1;" vector-effect="non-scaling-stroke"  points="37.16,0 20.45,15.44 3.75,30.87 3.75,11.91 -37.16,11.91 -37.16,-12.96 3.75,-12.96 3.75,-30.87 20.45,-15.44 " />
</g>
<g transform="matrix(2.61 0 0 2.61 229.81 668.04)"  >
<g style="" vector-effect="non-scaling-stroke"   >
		<g transform="matrix(1 0 0 1 -16.25 16.08)"  >
<path style="stroke: none; stroke-width: 1; stroke-dasharray: none; stroke-linecap: butt; stroke-dashoffset: 0; stroke-linejoin: miter; stroke-miterlimit: 4; fill: rgb(216,130,34); fill-rule: nonzero; opacity: 1;" vector-effect="non-scaling-stroke"  transform=" translate(-33.75, -66.08)" d="M 45.945 62.984 L 31.312 78.445 C 30.208000000000002 79.60499999999999 28.386000000000003 79.66099999999999 27.226 78.55499999999999 L 21.648 73.30999999999999 C 20.491 72.20499999999998 20.434 70.32699999999998 21.538 69.16799999999999 L 36.17 53.706 C 37.228 52.597 38.978 52.53 40.146 53.491 L 44.491 49.235 L 41.915 46.804 C 39.762 44.705 36.336999999999996 44.705 34.403999999999996 46.804 L 14.523999999999997 67.732 C 12.590999999999998 69.831 12.758999999999997 73.2 14.964999999999998 75.298 L 25.568999999999996 85.348 C 27.775999999999996 87.447 31.146999999999995 87.447 33.132999999999996 85.348 L 52.955 64.42 C 54.945 62.321 54.725 58.952 52.571 56.854 L 50.224 54.64 L 45.875 58.901 C 46.984 60.011 47.033 61.841 45.945 62.984 z" stroke-linecap="round" />
</g>
		<g transform="matrix(1 0 0 1 16.24 -16.09)"  >
<path style="stroke: none; stroke-width: 1; stroke-dasharray: none; stroke-linecap: butt; stroke-dashoffset: 0; stroke-linejoin: miter; stroke-miterlimit: 4; fill: rgb(216,130,34); fill-rule: nonzero; opacity: 1;" vector-effect="non-scaling-stroke"  transform=" translate(-66.23, -33.91)" d="M 85.043 24.715 L 74.385 14.609 C 72.232 12.565999999999999 68.808 12.565999999999999 66.87400000000001 14.609 L 46.995 35.595 C 45.062 37.638 45.229 41.004999999999995 47.436 43.104 L 49.122 44.702 L 53.572 40.338 C 53.013000000000005 39.259 53.128 37.897 54.007000000000005 36.975 L 68.64 21.568 C 69.747 20.408 71.623 20.353 72.784 21.458000000000002 L 78.305 26.703000000000003 C 79.46600000000001 27.808000000000003 79.519 29.686000000000003 78.415 30.845000000000002 L 63.838 46.252 C 62.732 47.411 60.856 47.466 59.694 46.362 L 59.173 45.873000000000005 L 54.839 50.121 L 58.039 53.153000000000006 C 60.245000000000005 55.25200000000001 63.616 55.25200000000001 65.602 53.209 L 85.42500000000001 32.225 C 87.417 30.183 87.249 26.758 85.043 24.715 z" stroke-linecap="round" />
</g>
		<g transform="matrix(1 0 0 1 -0.34 -0.33)"  >
<polygon style="stroke: none; stroke-width: 1; stroke-dasharray: none; stroke-linecap: butt; stroke-dashoffset: 0; stroke-linejoin: miter; stroke-miterlimit: 4; fill: rgb(216,130,34); fill-rule: nonzero; opacity: 1;" vector-effect="non-scaling-stroke"  points="-5.17,-0.44 0.56,4.97 5.17,0.45 -0.54,-4.97 " />
</g>
		<g transform="matrix(1 0 0 1 -10.48 9.71)"  >
<path style="stroke: none; stroke-width: 1; stroke-dasharray: none; stroke-linecap: butt; stroke-dashoffset: 0; stroke-linejoin: miter; stroke-miterlimit: 4; fill: rgb(216,130,34); fill-rule: nonzero; opacity: 1;" vector-effect="non-scaling-stroke"  transform=" translate(-39.52, -59.71)" d="M 34.032 63.705 L 35.318 65.01599999999999 C 36.483 66.207 38.396 66.228 39.586999999999996 65.05999999999999 L 45.876999999999995 58.90199999999999 C 45.858 58.884999999999984 45.85099999999999 58.859999999999985 45.834999999999994 58.84299999999999 L 40.31399999999999 53.59599999999999 C 40.263999999999996 53.54799999999999 40.199999999999996 53.53499999999999 40.14699999999999 53.49199999999999 L 34.07799999999999 59.43699999999999 C 32.887 60.603 32.864 62.515 34.032 63.705 z" stroke-linecap="round" />
</g>
		<g transform="matrix(1 0 0 1 -4.81 4.07)"  >
<path style="stroke: none; stroke-width: 1; stroke-dasharray: none; stroke-linecap: butt; stroke-dashoffset: 0; stroke-linejoin: miter; stroke-miterlimit: 4; fill: rgb(216,130,34); fill-rule: nonzero; opacity: 1;" vector-effect="non-scaling-stroke"  transform=" translate(-45.19, -54.07)" d="M 40.146 53.491 C 40.199 53.535 40.264 53.548 40.313 53.595 L 45.834 58.842 C 45.85 58.859 45.857000000000006 58.884 45.876000000000005 58.900999999999996 L 50.22500000000001 54.63999999999999 L 44.49100000000001 49.23499999999999 L 40.146 53.491 z" stroke-linecap="round" />
</g>
		<g transform="matrix(1 0 0 1 10.28 -10.75)"  >
<path style="stroke: none; stroke-width: 1; stroke-dasharray: none; stroke-linecap: butt; stroke-dashoffset: 0; stroke-linejoin: miter; stroke-miterlimit: 4; fill: rgb(216,130,34); fill-rule: nonzero; opacity: 1;" vector-effect="non-scaling-stroke"  transform=" translate(-60.28, -39.25)" d="M 59.174 45.874 L 66.079 39.113 C 67.27 37.946 67.28899999999999 36.035 66.125 34.844 L 64.839 33.533 C 63.671 32.34 61.760999999999996 32.322 60.57 33.488 L 53.572 40.339 C 53.718 40.619 53.877 40.891 54.117000000000004 41.117 L 59.174 45.874 z" stroke-linecap="round" />
</g>
		<g transform="matrix(1 0 0 1 4.15 -4.77)"  >
<path style="stroke: none; stroke-width: 1; stroke-dasharray: none; stroke-linecap: butt; stroke-dashoffset: 0; stroke-linejoin: miter; stroke-miterlimit: 4; fill: rgb(216,130,34); fill-rule: nonzero; opacity: 1;" vector-effect="non-scaling-stroke"  transform=" translate(-54.15, -45.23)" d="M 54.117 41.116 C 53.876999999999995 40.89 53.717999999999996 40.618 53.571999999999996 40.338 L 49.12199999999999 44.702 L 54.83999999999999 50.122 L 59.17399999999999 45.874 L 54.117 41.116 z" stroke-linecap="round" />
</g>
</g>
</g>
<g transform="matrix(0 2.28 -0.79 0 188.12 474.15)"  >
<polygon style="stroke: rgb(0,0,0); stroke-width: 0; stroke-dasharray: none; stroke-linecap: butt; stroke-dashoffset: 0; stroke-linejoin: miter; stroke-miterlimit: 4; fill: rgb(95,27,163); fill-rule: nonzero; opacity: 1;" vector-effect="non-scaling-stroke"  points="37.16,0 20.45,15.44 3.75,30.87 3.75,11.91 -37.16,11.91 -37.16,-12.96 3.75,-12.96 3.75,-30.87 20.45,-15.44 " />
</g>
</svg>